# xmcd
#
# Track frame offsets:
# 150
# 12672
# 29849
# 41421
# 51927
# 63032
# 76990
# 92070
# 100956
# 113288
# 125430
# 138469
#
# Disc length: 2168 seconds
#
# Revision: 0
# Processed by: cddbd v1.5.2PL0 Copyright (c) Steve Scherf et al.
# Submitted via: Axialis_AX_CDPlayer 2.6
#
DISCID=9a08760c
DTITLE=Johnny Cash - Wanted Man: The Johnny Cash Collection
DYEAR=1900
DGENRE=
TTITLE0=I Walk The Line
TTITLE1=A Boy Named Sue (Live)
TTITLE2=Big River
TTITLE3=Paul Revere
TTITLE4=The Long Black Veil (Live)
TTITLE5=Don't Take Your Guns To Town
TTITLE6=Cocaine Blues
TTITLE7=The Wreck Of The Old 97
TTITLE8=Lonesome To The Bone
TTITLE9=The Letter Edged In Black
TTITLE10=Wanted Man
TTITLE11=Highway Patrolman
EXTD=www.johnnycash.com
EXTT0=
EXTT1=
EXTT2=
EXTT3=
EXTT4=
EXTT5=
EXTT6=
EXTT7=
EXTT8=
EXTT9=
EXTT10=
EXTT11=
PLAYORDER=
